<?xml version="1.0" standalone="no"?>
<!DOCTYPE svg PUBLIC "-//W3C//DTD SVG 20010904//EN"
 "http://www.w3.org/TR/2001/REC-SVG-20010904/DTD/svg10.dtd">
<svg version="1.0" xmlns="http://www.w3.org/2000/svg"
 width="1280.000000pt" height="1085.000000pt" viewBox="0 0 1280.000000 1085.000000"
 preserveAspectRatio="xMidYMid meet">
<metadata>
Created by potrace 1.15, written by Peter Selinger 2001-2017
</metadata>
<g transform="translate(0.000000,1085.000000) scale(0.100000,-0.100000)"
fill="#000000" stroke="none">
<path d="M8415 10836 c-62 -27 -78 -127 -47 -276 12 -52 32 -147 46 -210 13
-63 30 -162 36 -220 15 -141 32 -202 95 -344 56 -127 85 -214 85 -253 0 -40
46 -116 103 -174 65 -64 135 -108 249 -155 218 -91 251 -114 272 -187 8 -29
22 -91 30 -139 29 -167 0 -245 -230 -604 -222 -345 -273 -396 -459 -453 -38
-12 -216 -49 -395 -81 -179 -33 -426 -80 -550 -105 -124 -25 -289 -57 -368
-70 -263 -46 -439 -35 -1322 80 -325 42 -491 55 -726 55 -620 0 -1358 -101
-1847 -251 -534 -166 -1050 -505 -1270 -836 -170 -255 -222 -474 -287 -1203
-35 -400 -45 -489 -67 -585 -43 -195 -211 -439 -366 -533 -31 -18 -88 -45
-129 -60 -69 -25 -84 -26 -253 -26 -209 0 -265 9 -595 103 -263 75 -400 105
-414 91 -16 -16 21 -75 79 -127 179 -159 555 -343 792 -389 104 -20 279 -19
378 1 159 33 265 84 484 233 167 113 246 162 261 162 59 0 -129 -492 -287
-754 -131 -216 -350 -473 -570 -667 -189 -167 -234 -212 -255 -254 -18 -34
-22 -69 -29 -255 -16 -382 -72 -890 -149 -1347 -31 -185 -36 -313 -16 -368 60
-155 383 -270 691 -246 131 11 155 29 155 118 0 54 -12 73 -46 73 -37 0 -63
32 -79 94 -9 32 -35 95 -60 140 -26 48 -54 119 -67 171 -20 81 -23 113 -22
320 0 192 4 250 22 350 29 158 73 313 120 422 117 271 514 743 623 743 78 0
129 -117 349 -790 236 -724 272 -814 369 -910 92 -91 112 -95 451 -95 299 0
382 9 430 45 21 16 25 29 28 88 4 65 2 71 -27 104 -51 59 -258 138 -360 138
-50 0 -148 49 -197 99 -108 111 -236 424 -265 652 -9 66 -9 108 0 166 32 215
200 552 343 689 29 28 143 115 253 194 230 166 559 413 657 494 125 104 264
297 368 511 70 145 88 199 99 297 5 41 14 84 20 96 31 58 125 66 296 26 452
-105 562 -126 1073 -209 664 -107 919 -168 1305 -309 209 -77 233 -98 283
-250 41 -123 58 -162 85 -191 28 -31 102 -224 194 -509 186 -578 247 -837 355
-1512 93 -585 156 -803 245 -840 18 -7 49 -32 69 -55 78 -91 190 -309 236
-460 34 -111 71 -167 133 -203 90 -53 120 -58 467 -68 478 -15 527 -15 586 5
71 24 98 55 90 101 -4 20 -22 55 -41 78 -119 149 -110 186 51 224 85 19 142
48 155 78 33 71 -146 266 -316 345 -33 16 -87 31 -120 35 -109 12 -154 33
-225 105 -79 80 -139 197 -198 381 -74 234 -92 377 -92 735 0 739 79 1380 221
1807 59 177 171 363 358 596 50 61 132 163 182 225 182 226 298 423 338 581
12 44 30 163 42 265 35 318 57 405 178 699 88 215 165 446 191 573 30 148 106
340 169 433 35 50 24 47 206 66 237 26 379 84 501 206 127 127 181 229 191
359 8 102 -13 169 -116 369 -99 192 -111 237 -92 328 14 69 51 186 80 251 27
61 54 73 202 86 130 11 189 28 271 77 65 40 136 115 144 153 10 50 47 118 157
286 171 262 320 574 376 790 28 105 27 140 -4 170 -31 32 -87 33 -248 5 -265
-46 -389 -96 -967 -388 l-465 -234 -115 22 c-466 91 -481 93 -625 93 -122 0
-161 -4 -310 -36 -93 -19 -174 -32 -180 -28 -97 73 -360 296 -559 475 -306
274 -529 425 -734 495 -71 24 -114 26 -157 7z"/>
</g>
</svg>
